<?xml version="1.0" encoding="UTF-8"?>
<!-- Generator: Adobe Illustrator 27.8.1, SVG Export Plug-In . SVG Version: 6.00 Build 0)  -->
<svg version="1.1" xmlns="http://www.w3.org/2000/svg" xmlns:xlink="http://www.w3.org/1999/xlink" x="0px" y="0px" viewBox="0 0 64 64" enable-background="new 0 0 64 64" xml:space="preserve">
<g id="location-outline-bot_x5F_s1g1_x5F_s2g1_x5F_s3g1_x5F_s4g1_x5F_background">
	<g id="Layer_5">
	</g>
	
		<path fill="#FFFFFF00" stroke="#EF1897FF" stroke-width="1" stroke-linecap="round" stroke-linejoin="round" stroke-miterlimit="10" d="   M24.967,22.623h14.066c3.884,0,7.033,3.149,7.033,7.033v14.066c0,3.884-3.149,7.033-7.033,7.033H24.967   c-3.884,0-7.033-3.149-7.033-7.033V29.656C17.934,25.772,21.083,22.623,24.967,22.623z"/>
</g>
<g id="location-outline-top_x5F_s1g1_x5F_s2g2_x5F_s3g1_x5F_s4g1_x5F_background">
	
		<path fill="#FFFFFF00" stroke="#EF1897FF" stroke-width="1" stroke-linecap="round" stroke-linejoin="round" stroke-miterlimit="10" d="   M42.125,23.371L42.125,23.371c0-0.001,0-0.002,0-0.003C42.123,17.777,37.591,13.246,32,13.246c-4.985,0-10.125,4.533-10.125,10.125   v0c0,0.429,0.053,1.03,0.056,1.06C22.501,30.258,27.4,40.119,32,40.119s9.499-9.861,10.069-15.688   C42.072,24.401,42.125,23.677,42.125,23.371z"/>
	
		<circle fill="#FFFFFF00" stroke="#EF1897FF" stroke-width="1" stroke-linecap="round" stroke-linejoin="round" stroke-miterlimit="10" cx="32" cy="23.567" r="4.199"/>
</g>
</svg>